<?xml version="1.0" encoding="UTF-8"?>
<svg width="383px" height="122px" viewBox="0 0 383 122" version="1.1" xmlns="http://www.w3.org/2000/svg" xmlns:xlink="http://www.w3.org/1999/xlink">
    <!-- Generator: Sketch 42 (36781) - http://www.bohemiancoding.com/sketch -->
    <title>Group</title>
    <desc>Created with Sketch.</desc>
    <defs></defs>
    <g id="Page-1" stroke="none" stroke-width="1" fill="none" fill-rule="evenodd">
        <g id="horizontal-" transform="translate(-56.000000, -37.000000)">
            <g id="Group" transform="translate(56.000000, 37.000000)">
                <path d="M165.65,78.45 C160.583308,78.45 158.05,75.8666925 158.05,70.7 L158.05,56.8 L157.05,56.8 C156.316663,56.8 155.700002,56.5500025 155.2,56.05 C154.699997,55.5499975 154.45,54.933337 154.45,54.2 C154.45,53.466663 154.699997,52.8500025 155.2,52.35 C155.700002,51.8499975 156.316663,51.6 157.05,51.6 L158.05,51.6 L158.05,47.1 C158.05,46.2666625 158.349997,45.5583362 158.95,44.975 C159.550003,44.3916637 160.266662,44.1 161.1,44.1 C161.933337,44.1 162.641664,44.3916637 163.225,44.975 C163.808336,45.5583362 164.1,46.2666625 164.1,47.1 L164.1,51.6 L168.85,51.6 C169.583337,51.6 170.208331,51.8499975 170.725,52.35 C171.241669,52.8500025 171.5,53.466663 171.5,54.2 C171.5,54.933337 171.241669,55.5499975 170.725,56.05 C170.208331,56.5500025 169.583337,56.8 168.85,56.8 L164.1,56.8 L164.1,69.75 C164.1,71.950011 165.183322,73.05 167.35,73.05 C167.616668,73.05 167.924998,73.0250003 168.275,72.975 C168.625002,72.9249997 168.816666,72.9 168.85,72.9 C169.550003,72.9 170.149997,73.1416642 170.65,73.625 C171.150002,74.1083357 171.4,74.6999965 171.4,75.4 C171.4,76.533339 170.866672,77.3166645 169.8,77.75 C168.46666,78.216669 167.08334,78.45 165.65,78.45 Z M188.17,78.55 C185.569987,78.55 183.361676,77.8250072 181.545,76.375 C179.728324,74.9249928 178.82,72.933346 178.82,70.4 L178.82,70.3 C178.82,67.5333195 179.803324,65.4250072 181.77,63.975 C183.736677,62.5249927 186.38665,61.8 189.72,61.8 C192.153346,61.8 194.519989,62.166663 196.82,62.9 L196.82,62.25 C196.82,60.383324 196.261672,58.9583382 195.145,57.975 C194.028328,56.9916617 192.403344,56.5 190.27,56.5 C188.136656,56.5 186.186676,56.8499965 184.42,57.55 C184.086665,57.6500005 183.770002,57.7 183.47,57.7 C182.769997,57.7 182.170003,57.4583358 181.67,56.975 C181.169998,56.4916642 180.92,55.9000035 180.92,55.2 C180.92,54.0333275 181.469995,53.2333355 182.57,52.8 C185.303347,51.7666615 188.136652,51.25 191.07,51.25 C195.003353,51.25 197.919991,52.2333235 199.82,54.2 C201.72001,56.066676 202.67,58.7833155 202.67,62.35 L202.67,75.35 C202.67,76.1833375 202.38667,76.8749973 201.82,77.425 C201.253331,77.9750028 200.553338,78.25 199.72,78.25 C198.853329,78.25 198.145003,78.0000025 197.595,77.5 C197.044997,76.9999975 196.77,76.4000035 196.77,75.7 L196.77,74.7 C194.636656,77.2666795 191.770018,78.55 188.17,78.55 Z M189.87,74.15 C191.903344,74.15 193.58666,73.6250053 194.92,72.575 C196.25334,71.5249948 196.92,70.166675 196.92,68.5 L196.92,66.7 C195.119991,65.9999965 193.120011,65.65 190.92,65.65 C188.986657,65.65 187.470006,66.0416628 186.37,66.825 C185.269995,67.6083373 184.72,68.6833265 184.72,70.05 L184.72,70.15 C184.72,71.3833395 185.203329,72.3583297 186.17,73.075 C187.136672,73.7916702 188.369993,74.15 189.87,74.15 Z M213.14,83.25 L213.14,54.35 C213.14,53.483329 213.431664,52.7583362 214.015,52.175 C214.598336,51.5916637 215.306663,51.3 216.14,51.3 C217.006671,51.3 217.731664,51.599997 218.315,52.2 C218.898336,52.800003 219.19,53.5166625 219.19,54.35 L219.19,56 C221.523345,52.6999835 224.523315,51.05 228.19,51.05 C231.490017,51.05 234.356655,52.283321 236.79,54.75 C239.223346,57.216679 240.44,60.549979 240.44,64.75 L240.44,64.85 C240.44,69.0166875 239.231679,72.3416543 236.815,74.825 C234.398321,77.3083458 231.52335,78.55 228.19,78.55 C224.523315,78.55 221.523345,77.0000155 219.19,73.9 L219.19,83.25 C219.19,84.0833375 218.898336,84.7916637 218.315,85.375 C217.731664,85.9583363 217.006671,86.25 216.14,86.25 C215.306663,86.25 214.598336,85.9583363 214.015,85.375 C213.431664,84.7916637 213.14,84.0833375 213.14,83.25 Z M226.74,73.3 C228.873344,73.3 230.664993,72.5250078 232.115,70.975 C233.565007,69.4249923 234.29,67.383346 234.29,64.85 L234.29,64.75 C234.29,62.2499875 233.556674,60.2166745 232.09,58.65 C230.623326,57.0833255 228.840011,56.3 226.74,56.3 C224.63999,56.3 222.831674,57.0916587 221.315,58.675 C219.798326,60.2583413 219.04,62.283321 219.04,64.75 L219.04,64.85 C219.04,67.316679 219.798326,69.3416587 221.315,70.925 C222.831674,72.5083413 224.63999,73.3 226.74,73.3 Z M254.46,62.95 L268.01,62.95 C267.809999,60.9166565 267.126673,59.2500065 265.96,57.95 C264.793328,56.6499935 263.243343,56 261.31,56 C259.476658,56 257.94334,56.6416603 256.71,57.925 C255.476661,59.2083397 254.726668,60.883323 254.46,62.95 Z M271.51,75.1 C268.909987,77.433345 265.743352,78.6 262.01,78.6 C258.143314,78.6 254.918346,77.3250127 252.335,74.775 C249.751654,72.2249872 248.46,68.9333535 248.46,64.9 L248.46,64.8 C248.46,60.9666475 249.676655,57.71668 252.11,55.05 C254.543346,52.38332 257.626648,51.05 261.36,51.05 C264.02668,51.05 266.343324,51.7249932 268.31,53.075 C270.276677,54.4250067 271.701662,56.0583237 272.585,57.975 C273.468338,59.8916762 273.91,61.916656 273.91,64.05 C273.91,64.8833375 273.635003,65.5749972 273.085,66.125 C272.534997,66.6750028 271.860004,66.95 271.06,66.95 L254.51,66.95 C254.843335,69.0500105 255.693327,70.6916607 257.06,71.875 C258.426674,73.0583393 260.10999,73.65 262.11,73.65 C264.410012,73.65 266.493324,72.883341 268.36,71.35 C268.826669,70.9833315 269.343331,70.8 269.91,70.8 C270.57667,70.8 271.143331,71.033331 271.61,71.5 C272.076669,71.966669 272.31,72.5499965 272.31,73.25 C272.31,73.9500035 272.043336,74.566664 271.51,75.1 Z M292.38,78.5 C288.713315,78.5 285.363349,77.4500105 282.33,75.35 C281.56333,74.949998 281.18,74.250005 281.18,73.25 C281.18,72.58333 281.413331,72.0083358 281.88,71.525 C282.346669,71.0416642 282.929997,70.8 283.63,70.8 C284.096669,70.8 284.529998,70.9166655 284.93,71.15 C287.463346,72.8500085 289.996654,73.7 292.53,73.7 C293.830007,73.7 294.83833,73.4416693 295.555,72.925 C296.27167,72.4083308 296.63,71.716671 296.63,70.85 L296.63,70.75 C296.63,69.483327 294.863351,68.316672 291.33,67.25 C291.063332,67.1499995 290.863334,67.0833335 290.73,67.05 C289.529994,66.716665 288.530004,66.383335 287.73,66.05 C286.929996,65.716665 286.080005,65.2583362 285.18,64.675 C284.279996,64.0916637 283.605002,63.3500045 283.155,62.45 C282.704998,61.5499955 282.48,60.500006 282.48,59.3 L282.48,59.2 C282.48,56.7666545 283.371658,54.816674 285.155,53.35 C286.938342,51.883326 289.179987,51.15 291.88,51.15 C294.713348,51.15 297.479987,51.8666595 300.18,53.3 C301.146672,53.8000025 301.63,54.5666615 301.63,55.6 C301.63,56.3000035 301.388336,56.883331 300.905,57.35 C300.421664,57.816669 299.830004,58.05 299.13,58.05 C298.729998,58.05 298.330002,57.950001 297.93,57.75 C295.596655,56.549994 293.530009,55.95 291.73,55.95 C290.596661,55.95 289.69667,56.1916643 289.03,56.675 C288.36333,57.1583357 288.03,57.7833295 288.03,58.55 L288.03,58.65 C288.03,59.4833375 288.479996,60.1416642 289.38,60.625 C290.280005,61.1083357 291.646658,61.649997 293.48,62.25 C293.713335,62.316667 293.88,62.3666665 293.98,62.4 C295.146673,62.7666685 296.129996,63.1249983 296.93,63.475 C297.730004,63.8250017 298.571662,64.299997 299.455,64.9 C300.338338,65.500003 301.013331,66.233329 301.48,67.1 C301.946669,67.966671 302.18,68.966661 302.18,70.1 L302.18,70.2 C302.18,72.86668 301.263343,74.9166595 299.43,76.35 C297.596658,77.7833405 295.246681,78.5 292.38,78.5 Z M319.95,78.45 C314.883308,78.45 312.35,75.8666925 312.35,70.7 L312.35,56.8 L311.35,56.8 C310.616663,56.8 310.000003,56.5500025 309.5,56.05 C308.999998,55.5499975 308.75,54.933337 308.75,54.2 C308.75,53.466663 308.999998,52.8500025 309.5,52.35 C310.000003,51.8499975 310.616663,51.6 311.35,51.6 L312.35,51.6 L312.35,47.1 C312.35,46.2666625 312.649997,45.5583362 313.25,44.975 C313.850003,44.3916637 314.566663,44.1 315.4,44.1 C316.233338,44.1 316.941664,44.3916637 317.525,44.975 C318.108336,45.5583362 318.4,46.2666625 318.4,47.1 L318.4,51.6 L323.15,51.6 C323.883337,51.6 324.508331,51.8499975 325.025,52.35 C325.541669,52.8500025 325.8,53.466663 325.8,54.2 C325.8,54.933337 325.541669,55.5499975 325.025,56.05 C324.508331,56.5500025 323.883337,56.8 323.15,56.8 L318.4,56.8 L318.4,69.75 C318.4,71.950011 319.483323,73.05 321.65,73.05 C321.916668,73.05 322.224998,73.0250003 322.575,72.975 C322.925002,72.9249997 323.116667,72.9 323.15,72.9 C323.850004,72.9 324.449998,73.1416642 324.95,73.625 C325.450003,74.1083357 325.7,74.6999965 325.7,75.4 C325.7,76.533339 325.166672,77.3166645 324.1,77.75 C322.76666,78.216669 321.383341,78.45 319.95,78.45 Z M334.87,75.25 L334.87,54.35 C334.87,53.483329 335.161664,52.7583362 335.745,52.175 C336.328336,51.5916637 337.036663,51.3 337.87,51.3 C338.736671,51.3 339.461664,51.599997 340.045,52.2 C340.628336,52.800003 340.92,53.5166625 340.92,54.35 L340.92,57.05 C341.653337,55.3499915 342.619994,53.9583387 343.82,52.875 C345.020006,51.7916613 346.269994,51.25 347.57,51.25 C348.503338,51.25 349.236664,51.5249972 349.77,52.075 C350.303336,52.6250027 350.57,53.3499955 350.57,54.25 C350.57,55.0166705 350.345002,55.6583308 349.895,56.175 C349.444998,56.6916692 348.870004,57.016666 348.17,57.15 C345.936656,57.550002 344.170007,58.6083248 342.87,60.325 C341.569994,62.0416752 340.92,64.4166515 340.92,67.45 L340.92,75.25 C340.92,76.0833375 340.620003,76.7916637 340.02,77.375 C339.419997,77.9583363 338.703338,78.25 337.87,78.25 C337.036663,78.25 336.328336,77.9583363 335.745,77.375 C335.161664,76.7916637 334.87,76.0833375 334.87,75.25 Z M363.54,86.15 C362.006659,86.15 360.606673,85.9000025 359.34,85.4 C358.073327,84.9666645 357.44,84.1333395 357.44,82.9 C357.44,82.166663 357.681664,81.566669 358.165,81.1 C358.648336,80.633331 359.22333,80.4 359.89,80.4 C360.223335,80.4 360.589998,80.466666 360.99,80.6 C361.823338,80.8333345 362.523331,80.95 363.09,80.95 C363.990005,80.95 364.714997,80.7416688 365.265,80.325 C365.815003,79.9083313 366.339998,79.1833385 366.84,78.15 L367.04,77.6 L357.24,55.7 C357.006666,55.166664 356.89,54.6833355 356.89,54.25 C356.89,53.4166625 357.173331,52.7166695 357.74,52.15 C358.30667,51.5833305 359.023329,51.3 359.89,51.3 C361.256674,51.3 362.239997,52.066659 362.84,53.6 L369.94,71.15 L376.54,53.6 C377.140003,52.066659 378.10666,51.3 379.44,51.3 C380.240004,51.3 380.923331,51.5749972 381.49,52.125 C382.05667,52.6750028 382.34,53.349996 382.34,54.15 C382.34,54.616669 382.256668,55.0999975 382.09,55.6 L372.44,78.75 C371.306661,81.4500135 370.07334,83.3583278 368.74,84.475 C367.40666,85.5916723 365.673344,86.15 363.54,86.15 Z" id="tapestry-copy" fill="#4A4A4A"></path>
                <g id="tapestry-test-3-copy-10">
                    <path d="M115.247059,26.2090199 L124,26.2090199 L124,26.5130537 L115.247059,26.5130537 C115.247059,26.46226 115.24654,26.4115869 115.245507,26.3610396 C115.24654,26.3104906 115.247059,26.2598157 115.247059,26.2090199 Z M0,95.6840907 L8.75294118,95.6840907 L8.75294118,95.3632568 L0,95.3632568 C-4.14622585e-14,95.4167715 0.000261405139,95.4702252 0.000783004858,95.5236168 C0.000261404413,95.5770461 0,95.6305378 0,95.6840907 Z M8.75294118,95.6840907 L0,95.6840907 L0,95.3632568 L8.75294118,95.3632568 C8.75294118,95.4168219 8.75351806,95.4702531 8.75466594,95.5235444 C8.75351806,95.5769205 8.75294118,95.6304379 8.75294118,95.6840907 Z M107.954754,19.2132093 L4.92767513,19.2132093 C2.51061716,19.2132093 0.551204539,17.2507688 0.551204539,14.8299758 C0.551204539,12.4091828 2.51061716,10.4467423 4.92767513,10.4467423 L107.954754,10.4467423 C116.764618,10.4467423 123.917785,17.5592769 123.999296,26.3610405 C123.917777,35.1640574 116.763258,42.2753313 107.95353,42.2753313 L16.5856443,42.2753313 C12.5970747,42.2753313 9.35183603,45.4904016 9.29292994,49.4697941 C9.35180537,53.4527582 12.5937021,56.6640987 16.5808189,56.6640987 L107.910924,56.6640987 C116.698151,56.6640987 123.834399,63.7452629 123.951117,72.5215307 C123.834355,81.296741 116.692787,88.3790725 107.909539,88.3790725 L16.0430302,88.3790725 C12.0701324,88.3790725 8.83985706,91.5621875 8.75466594,95.5235444 C8.83991984,99.4815493 12.0748576,102.668275 16.0433388,102.668275 L119.579146,102.668275 C121.996204,102.668275 123.955617,104.630716 123.955617,107.051509 C123.955617,109.472302 121.996204,111.434742 119.579146,111.434742 L16.0433388,111.434742 C7.24096587,111.434742 0.0867524242,104.323548 0.000783004858,95.5236168 C0.0867193492,86.7208705 7.23548181,79.6126054 16.0430302,79.6126054 L107.909539,79.6126054 C111.858082,79.6126054 115.081034,76.4553695 115.19643,72.5214548 C115.081109,68.5854979 111.862238,65.4305657 107.910924,65.4305657 L16.5808189,65.4305657 C7.75901115,65.4305657 0.598750483,58.2938645 0.539543775,49.4697517 C0.598763502,40.6495428 7.76215897,33.5088642 16.5856443,33.5088642 L107.95353,33.5088642 C111.930103,33.5088642 115.164608,30.3212842 115.245507,26.3610396 C115.164617,22.4013274 111.930749,19.2132093 107.954754,19.2132093 Z" id="loom-copy" fill="#864BFF" fill-rule="nonzero"></path>
                    <g id="weave" transform="translate(11.670588, 0.000000)" fill="#00FFCB">
                        <path d="M8.02352941,33.5591317 L8.02352941,13.1790437 C8.02352941,11.2214161 9.49602083,9.628916 11.3016342,9.628916 L11.9715953,9.628916 C12.7948562,9.628916 13.5476284,9.95813108 14.1236078,10.5016962 C15.1352941,10.5016962 21.8600425,10.4239129 22.9965504,10.4786741 C21.8600425,5.02490085 17.3556034,0.94973627 11.9715953,0.94973627 L11.3016342,0.94973627 C5.06510574,0.94973627 0,6.42765034 0,13.1790437 L0,34.2896707 C0,34.2896707 1.41323529,33.7874251 3.51029412,33.5591317 L8.02352941,33.5591317 Z" id="GUIDE-Copy-8" fill-rule="nonzero"></path>
                        <path d="M38.6588235,33.5591317 L38.6588235,13.1059184 C38.6588235,11.1482909 40.131315,9.55579077 41.9369283,9.55579077 L42.6068894,9.55579077 C43.4301503,9.55579077 44.1829225,9.88500584 44.7589019,10.428571 C45.7705882,10.428571 52.4953366,10.3507877 53.6318445,10.4055489 C52.4953366,4.95177561 47.9908975,0.876611036 42.6068894,0.876611036 L41.9369283,0.876611036 C35.7003999,0.876611036 30.6352941,6.35452511 30.6352941,13.1059184 L30.6352941,33.5134731 L38.6588235,33.5591317 Z" id="GUIDE-Copy-9" fill-rule="nonzero"></path>
                        <path d="M69.2941176,33.6047904 L69.2941176,13.1790437 C69.2941176,11.2214161 70.7666091,9.628916 72.5722225,9.628916 L73.2421836,9.628916 C74.0654444,9.628916 74.8182166,9.95813108 75.394196,10.5016962 C76.4058824,10.5016962 83.1306308,10.4239129 84.2671386,10.4786741 C83.1306308,5.02490085 78.6261916,0.94973627 73.2421836,0.94973627 L72.5722225,0.94973627 C66.335694,0.94973627 61.2705882,6.42765034 61.2705882,13.1790437 L61.2705882,33.5591317 L69.2941176,33.6047904 Z" id="GUIDE-Copy-10" fill-rule="nonzero"></path>
                        <path d="M24.0712173,120.986368 L24.0712173,100.624517 C24.0712173,98.6668894 25.5438242,97.0743893 27.3495792,97.0743893 L28.0195928,97.0743893 C28.8429182,97.0743893 29.5957494,97.4036044 30.171774,97.9471696 C31.1835396,97.9471696 37.9088153,97.8693862 39.0454123,97.9241474 C37.9088153,92.4703742 33.404023,88.3952096 28.0195928,88.3952096 L27.3495792,88.3952096 C21.1125617,88.3952096 16.0470588,93.8731237 16.0470588,100.624517 L16.0470588,120.94071 L24.0712173,120.986368 Z" id="GUIDE-Copy-11" fill-rule="nonzero" transform="translate(27.546236, 104.690789) scale(-1, -1) translate(-27.546236, -104.690789) "></path>
                        <path d="M54.7065114,120.986368 L54.7065114,100.624517 C54.7065114,98.6668894 56.1791183,97.0743893 57.9848733,97.0743893 L58.6548869,97.0743893 C59.4782123,97.0743893 60.2310435,97.4036044 60.8070681,97.9471696 C61.8188337,97.9471696 68.5441094,97.8693862 69.6807064,97.9241474 C68.5441094,92.4703742 64.0393171,88.3952096 58.6548869,88.3952096 L57.9848733,88.3952096 C51.7478558,88.3952096 46.6823529,93.8731237 46.6823529,100.624517 L46.6823529,120.94071 L54.7065114,120.986368 Z" id="GUIDE-Copy-12" fill-rule="nonzero" transform="translate(58.181530, 104.690789) scale(-1, -1) translate(-58.181530, -104.690789) "></path>
                        <path d="M85.3418056,120.392805 L85.3418056,100.030954 C85.3418056,98.0733266 86.8144124,96.4808264 88.6201674,96.4808264 L89.290181,96.4808264 C90.1135064,96.4808264 90.8663377,96.8100415 91.4423622,97.3536067 C92.4541279,97.3536067 99.1794035,97.2758234 100.316001,97.3305845 C99.1794035,91.8768113 94.6746112,87.8016467 89.290181,87.8016467 L88.6201674,87.8016467 C82.3831499,87.8016467 77.3176471,93.2795608 77.3176471,100.030954 L77.3176471,120.940692 C77.3176471,120.940692 79.0718829,120.392805 80.3027652,120.392805 C83.1367135,120.270257 85.3418056,120.392805 85.3418056,120.392805 Z" id="GUIDE-Copy-13" fill-rule="nonzero" transform="translate(88.816824, 104.371169) scale(-1, -1) translate(-88.816824, -104.371169) "></path>
                        <path d="M4.01176471,42.2571108 L8.02352941,42.2571108 L8.02352941,79.6287425 C8.02352941,79.6287425 4.0572639,79.6287425 3.60138155,79.6287425 C1.77785214,79.7428 0,80.2451347 0,80.2451347 L0,44.1976048 C0,44.1976048 1.77794118,42.2571108 4.01176471,42.2571108 Z" id="Rectangle-6-Copy-17"></path>
                        <polygon id="Rectangle-6-Copy-18" points="15.3176471 19.1766467 23.3411765 19.1766467 23.3411765 56.6167665 15.3176471 56.6167665"></polygon>
                        <polygon id="Rectangle-6-Copy-19" points="45.9529412 19.2223054 53.9764706 19.2223054 53.9764706 56.6167665 45.9529412 56.6167665"></polygon>
                        <polygon id="Rectangle-6-Copy-20" points="76.5882353 19.2223054 84.6117647 19.2223054 84.6117647 56.6167665 76.5882353 56.6167665"></polygon>
                        <path d="M91.9058824,42.29364 C91.9058824,42.29364 94.0712345,42.29364 96.8066176,42.29364 C98.4932933,42.29364 99.9294118,41.8598825 99.9294118,41.8598825 L99.9294118,78.6606915 C99.9294118,78.6606915 99.0632353,79.551125 96.3052361,79.6652717 C94.0029412,79.6652717 91.9058824,79.6652717 91.9058824,79.6652717 L91.9058824,42.29364 Z" id="Rectangle-6-Copy-26"></path>
                        <rect id="Rectangle-6-Copy-23" x="15.3176471" y="65.3101975" width="8.02352941" height="37.4035934"></rect>
                        <rect id="Rectangle-6-Copy-24" x="45.9529412" y="65.4562863" width="8.02352941" height="37.1844323"></rect>
                        <rect id="Rectangle-6-Copy-27" x="76.5882353" y="65.3101975" width="8.02352941" height="37.4035934"></rect>
                        <polygon id="Rectangle-6-Copy-28" points="30.6352941 42.1886228 38.6588235 42.1886228 38.6588235 79.5922161 30.6352941 79.5922161"></polygon>
                        <polygon id="Rectangle-6-Copy-29" points="61.2705882 42.1886228 69.2941176 42.1886228 69.2941176 79.5922161 61.2705882 79.5922161"></polygon>
                        <path d="M3.73841337,88.3952096 L8.02352941,88.3952096 L8.02352941,117.70557 C8.02352941,119.926019 6.2228928,121.726048 4.01176471,121.726048 L4.01176471,121.726048 C1.79612824,121.726048 0,119.923864 0,117.711628 L0,89.9019461 C0,89.9019461 0.957352941,88.623503 3.73841337,88.3952096 Z" id="Rectangle-6-Copy-30"></path>
                        <path d="M95.6442957,0.365269461 L99.9294118,0.365269461 L99.9294118,29.4583938 C99.9294118,31.6727356 98.1287752,33.4678144 95.9176471,33.4678144 L95.9176471,33.4678144 C93.7020106,33.4678144 91.9058824,31.6727939 91.9058824,29.4501431 L91.9058824,1.36061982 C91.9058824,1.36061982 93.3875,0.365269461 95.6442957,0.365269461 Z" id="Rectangle-6-Copy-31" transform="translate(95.917647, 16.916542) scale(-1, -1) translate(-95.917647, -16.916542) "></path>
                    </g>
                </g>
            </g>
        </g>
    </g>
</svg>