<?xml version="1.0" encoding="UTF-8"?>
<svg width="170px" height="167px" viewBox="0 0 170 167" version="1.1" xmlns="http://www.w3.org/2000/svg" xmlns:xlink="http://www.w3.org/1999/xlink">
    <!-- Generator: Sketch 42 (36781) - http://www.bohemiancoding.com/sketch -->
    <title>tapestry test 3 copy 9</title>
    <desc>Created with Sketch.</desc>
    <defs></defs>
    <g id="Page-1" stroke="none" stroke-width="1" fill="none" fill-rule="evenodd">
        <g id="logo" transform="translate(-32.000000, -14.000000)">
            <g id="tapestry-test-3-copy-9" transform="translate(32.000000, 14.000000)">
                <path d="M158,35.8762813 L170,35.8762813 L170,36.2924587 L158,36.2924587 C158,36.2229296 157.999289,36.1535657 157.997873,36.0843739 C157.999289,36.0151797 158,35.9458132 158,35.8762813 Z M0,130.977403 L12,130.977403 L12,130.538229 L0,130.538229 C-5.68434189e-14,130.611482 0.000358378013,130.684653 0.0010734744,130.757738 C0.000358377017,130.830875 0,130.904097 0,130.977403 Z M12,130.977403 L0,130.977403 L0,130.538229 L12,130.538229 C12,130.611551 12.0007909,130.684691 12.0023646,130.757639 C12.0007909,130.830703 12,130.90396 12,130.977403 Z M148.002485,26.3000488 L6.75568364,26.3000488 C3.44197514,26.3000488 0.755683642,23.6137573 0.755683642,20.3000488 C0.755683642,16.9863403 3.44197514,14.3000488 6.75568364,14.3000488 L148.002485,14.3000488 C160.080524,14.3000488 169.887285,24.0360593 169.999035,36.0843751 C169.887275,48.1344064 160.078661,57.8686912 148.000807,57.8686912 L22.7383834,57.8686912 C17.2701831,57.8686912 12.8210655,62.2696481 12.7403072,67.7168492 C12.8210235,73.1689395 17.2655594,77.5647908 22.7317679,77.5647908 L147.942396,77.5647908 C159.9894,77.5647908 169.772966,87.2578598 169.932983,99.2712757 C169.772906,111.283244 159.982047,120.977911 147.940497,120.977911 L21.9944769,120.977911 C16.5477621,120.977911 12.1191589,125.335126 12.0023646,130.757639 C12.1192449,136.175563 16.5542403,140.537721 21.9949,140.537721 L163.939152,140.537721 C167.25286,140.537721 169.939152,143.224012 169.939152,146.537721 C169.939152,149.851429 167.25286,152.537721 163.939152,152.537721 L21.9949,152.537721 C9.92713063,152.537721 0.118934775,142.803545 0.0010734744,130.757738 C0.11888943,118.708077 9.91961216,108.977911 21.9944769,108.977911 L147.940497,108.977911 C153.353822,108.977911 157.772386,104.656121 157.930589,99.2711717 C157.772489,93.8834274 153.35952,89.5647908 147.942396,89.5647908 L22.7317679,89.5647908 C10.637354,89.5647908 0.820867598,79.7956998 0.739697111,67.7167913 C0.820885446,55.6432266 10.6416696,45.8686912 22.7383834,45.8686912 L148.000807,45.8686912 C153.452561,45.8686912 157.886963,41.5053645 157.997873,36.0843739 C157.886974,30.664112 153.453446,26.3000488 148.002485,26.3000488 Z" id="loom-copy" fill="#864BFF" fill-rule="nonzero"></path>
                <g id="weave" transform="translate(16.000000, 0.000000)" fill="#00FFCB">
                    <path d="M11,45.9375 L11,18.0401663 C11,15.3604631 13.0187382,13.1805653 15.4941759,13.1805653 L16.412671,13.1805653 C17.5413351,13.1805653 18.5733615,13.6312122 19.3630107,14.3752727 C20.75,14.3752727 29.9694131,14.2687988 31.5275288,14.3437588 C29.9694131,6.87834788 23.7939724,1.30004883 16.412671,1.30004883 L15.4941759,1.30004883 C6.94409658,1.30004883 0,8.79850498 0,18.0401663 L0,46.9375 C0,46.9375 1.9375,46.25 4.8125,45.9375 L11,45.9375 Z" id="GUIDE-Copy-8" fill-rule="nonzero"></path>
                    <path d="M53,45.9375 L53,17.9400687 C53,15.2603654 55.0187382,13.0804677 57.4941759,13.0804677 L58.412671,13.0804677 C59.5413351,13.0804677 60.5733615,13.5311146 61.3630107,14.2751751 C62.75,14.2751751 71.9694131,14.1687012 73.5275288,14.2436612 C71.9694131,6.77825023 65.7939724,1.19995117 58.412671,1.19995117 L57.4941759,1.19995117 C48.9440966,1.19995117 42,8.69840732 42,17.9400687 L42,45.875 L53,45.9375 Z" id="GUIDE-Copy-9" fill-rule="nonzero"></path>
                    <path d="M95,46 L95,18.0401663 C95,15.3604631 97.0187382,13.1805653 99.4941759,13.1805653 L100.412671,13.1805653 C101.541335,13.1805653 102.573362,13.6312122 103.363011,14.3752727 C104.75,14.3752727 113.969413,14.2687988 115.527529,14.3437588 C113.969413,6.87834788 107.793972,1.30004883 100.412671,1.30004883 L99.4941759,1.30004883 C90.9440966,1.30004883 84,8.79850498 84,18.0401663 L84,45.9375 L95,46 Z" id="GUIDE-Copy-10" fill-rule="nonzero"></path>
                    <path d="M33.0008625,165.612488 L33.0008625,137.740118 C33.0008625,135.060414 35.019759,132.880517 37.4953908,132.880517 L38.4139579,132.880517 C39.5427104,132.880517 40.5748178,133.331163 41.3645289,134.075224 C42.7516269,134.075224 51.9717629,133.96875 53.5300007,134.04371 C51.9717629,126.578299 45.7958379,121 38.4139579,121 L37.4953908,121 C28.944641,121 22,128.498456 22,137.740118 L22,165.549988 L33.0008625,165.612488 Z" id="GUIDE-Copy-11" fill-rule="nonzero" transform="translate(37.765000, 143.306244) scale(-1, -1) translate(-37.765000, -143.306244) "></path>
                    <path d="M75.0008625,165.612488 L75.0008625,137.740118 C75.0008625,135.060414 77.019759,132.880517 79.4953908,132.880517 L80.4139579,132.880517 C81.5427104,132.880517 82.5748178,133.331163 83.3645289,134.075224 C84.7516269,134.075224 93.9717629,133.96875 95.5300007,134.04371 C93.9717629,126.578299 87.7958379,121 80.4139579,121 L79.4953908,121 C70.944641,121 64,128.498456 64,137.740118 L64,165.549988 L75.0008625,165.612488 Z" id="GUIDE-Copy-12" fill-rule="nonzero" transform="translate(79.765000, 143.306244) scale(-1, -1) translate(-79.765000, -143.306244) "></path>
                    <path d="M117.000862,164.799988 L117.000862,136.927618 C117.000862,134.247914 119.019759,132.068017 121.495391,132.068017 L122.413958,132.068017 C123.54271,132.068017 124.574818,132.518663 125.364529,133.262724 C126.751627,133.262724 135.971763,133.15625 137.530001,133.23121 C135.971763,125.765799 129.795838,120.1875 122.413958,120.1875 L121.495391,120.1875 C112.944641,120.1875 106,127.685956 106,136.927618 L106,165.549963 C106,165.549963 108.405001,164.799988 110.092501,164.799988 C113.977752,164.632237 117.000862,164.799988 117.000862,164.799988 Z" id="GUIDE-Copy-13" fill-rule="nonzero" transform="translate(121.765000, 142.868732) scale(-1, -1) translate(-121.765000, -142.868732) "></path>
                    <path d="M5.5,57.84375 L11,57.84375 L11,109 C11,109 5.56237793,109 4.93737793,109 C2.43737793,109.156128 0,109.84375 0,109.84375 L0,60.5 C0,60.5 2.4375,57.84375 5.5,57.84375 Z" id="Rectangle-6-Copy-17"></path>
                    <polygon id="Rectangle-6-Copy-18" points="21 26.25 32 26.25 32 77.5 21 77.5"></polygon>
                    <polygon id="Rectangle-6-Copy-19" points="63 26.3125 74 26.3125 74 77.5 63 77.5"></polygon>
                    <polygon id="Rectangle-6-Copy-20" points="105 26.3125 116 26.3125 116 77.5 105 77.5"></polygon>
                    <path d="M126,57.8937531 C126,57.8937531 128.968628,57.8937531 132.71875,57.8937531 C135.031128,57.8937531 137,57.3000031 137,57.3000031 L137,107.674881 C137,107.674881 135.8125,108.893753 132.031372,109.050003 C128.875,109.050003 126,109.050003 126,109.050003 L126,57.8937531 Z" id="Rectangle-6-Copy-26"></path>
                    <rect id="Rectangle-6-Copy-23" x="21" y="89.4000244" width="11" height="51.2000008"></rect>
                    <rect id="Rectangle-6-Copy-24" x="63" y="89.5999985" width="11" height="50.9000015"></rect>
                    <rect id="Rectangle-6-Copy-27" x="105" y="89.4000244" width="11" height="51.2000008"></rect>
                    <polygon id="Rectangle-6-Copy-28" points="42 57.75 53 57.75 53 108.950001 42 108.950001"></polygon>
                    <polygon id="Rectangle-6-Copy-29" points="84 57.75 95 57.75 95 108.950001 84 108.950001"></polygon>
                    <path d="M5.12524414,121 L11,121 L11,161.121559 C11,164.161026 8.53138529,166.625 5.5,166.625 L5.5,166.625 C2.46243388,166.625 0,164.158076 0,161.129851 L0,123.0625 C0,123.0625 1.3125,121.3125 5.12524414,121 Z" id="Rectangle-6-Copy-30"></path>
                    <path d="M131.125244,0.5 L137,0.5 L137,40.3129015 C137,43.3502459 134.531385,45.8125 131.5,45.8125 L131.5,45.8125 C128.462434,45.8125 126,43.3553818 126,40.3129008 L126,1.86248779 C126,1.86248779 128.03125,0.5 131.125244,0.5 Z" id="Rectangle-6-Copy-31" transform="translate(131.500000, 23.156250) scale(-1, -1) translate(-131.500000, -23.156250) "></path>
                </g>
            </g>
        </g>
    </g>
</svg>