<?xml version="1.0" encoding="UTF-8"?>
<svg width="198px" height="189px" viewBox="0 0 198 189" version="1.1" xmlns="http://www.w3.org/2000/svg" xmlns:xlink="http://www.w3.org/1999/xlink">
    <!-- Generator: Sketch 42 (36781) - http://www.bohemiancoding.com/sketch -->
    <title>Group</title>
    <desc>Created with Sketch.</desc>
    <defs></defs>
    <g id="Page-1" stroke="none" stroke-width="1" fill="none" fill-rule="evenodd">
        <g id="vertical-" transform="translate(-56.000000, -46.000000)">
            <g id="Group" transform="translate(56.000000, 46.000000)">
                <path d="M9.73101057,182.153025 C5.32886473,182.153025 3.12782483,179.885353 3.12782483,175.349941 L3.12782483,163.14828 L2.2589846,163.14828 C1.62183191,163.14828 1.08605246,162.928828 0.651630172,162.489917 C0.217207885,162.051006 2.84217094e-14,161.509691 2.84217094e-14,160.865955 C2.84217094e-14,160.222219 0.217207885,159.680904 0.651630172,159.241993 C1.08605246,158.803082 1.62183191,158.58363 2.2589846,158.58363 L3.12782483,158.58363 L3.12782483,154.633452 C3.12782483,153.901934 3.38847429,153.280153 3.90978103,152.76809 C4.43108778,152.256027 5.05375038,152 5.77778752,152 C6.50182467,152 7.11724701,152.256027 7.62407301,152.76809 C8.13089901,153.280153 8.38430821,153.901934 8.38430821,154.633452 L8.38430821,158.58363 L12.5112993,158.58363 C13.148452,158.58363 13.6914717,158.803082 14.1403747,159.241993 C14.5892778,159.680904 14.8137259,160.222219 14.8137259,160.865955 C14.8137259,161.509691 14.5892778,162.051006 14.1403747,162.489917 C13.6914717,162.928828 13.148452,163.14828 12.5112993,163.14828 L8.38430821,163.14828 L8.38430821,174.516014 C8.38430821,176.447222 9.32554238,177.412811 11.208039,177.412811 C11.4397308,177.412811 11.7076206,177.390866 12.0117162,177.346975 C12.3158118,177.303084 12.4823378,177.281139 12.5112993,177.281139 C13.1194905,177.281139 13.6407894,177.493276 14.0752117,177.917556 C14.509634,178.341837 14.7268419,178.861207 14.7268419,179.475682 C14.7268419,180.470547 14.2634651,181.158163 13.3366975,181.538553 C12.1782381,181.948203 10.9763545,182.153025 9.73101057,182.153025 Z M29.2972926,182.240807 C27.0382967,182.240807 25.119627,181.604395 23.541226,180.331554 C21.9628251,179.058712 21.1736364,177.31041 21.1736364,175.086595 L21.1736364,174.998814 C21.1736364,172.570174 22.0279874,170.719461 23.7367151,169.446619 C25.4454427,168.173778 27.7478463,167.537367 30.6439949,167.537367 C32.7581834,167.537367 34.814418,167.85923 36.8127605,168.502966 L36.8127605,167.932384 C36.8127605,166.293784 36.3276629,165.042907 35.3574532,164.179715 C34.3872434,163.316524 32.9753921,162.884935 31.121857,162.884935 C29.2683219,162.884935 27.5741004,163.192168 26.0391417,163.806643 C25.7495268,163.894425 25.4743968,163.938316 25.2137435,163.938316 C24.6055523,163.938316 24.0842533,163.726178 23.6498311,163.301898 C23.2154088,162.877617 22.9982009,162.358247 22.9982009,161.743772 C22.9982009,160.719647 23.4760582,160.0174 24.4317873,159.637011 C26.8066291,158.729928 29.2683185,158.276394 31.8169292,158.276394 C35.2343845,158.276394 37.7684765,159.139572 39.4192812,160.865955 C41.0700859,162.504555 41.8954759,164.889269 41.8954759,168.020166 L41.8954759,179.431791 C41.8954759,180.163309 41.6493069,180.77046 41.1569617,181.253262 C40.6646164,181.736064 40.0564343,181.977461 39.3323972,181.977461 C38.5793986,181.977461 37.9639762,181.758009 37.4861117,181.319098 C37.0082472,180.880188 36.7693185,180.353502 36.7693185,179.739027 L36.7693185,178.86121 C34.9157834,181.114286 32.425133,182.240807 29.2972926,182.240807 Z M30.7743209,178.37841 C32.5409716,178.37841 34.0035047,177.917561 35.1619641,176.995848 C36.3204235,176.074135 36.8996446,174.881779 36.8996446,173.418743 L36.8996446,171.838671 C35.3357243,171.224196 33.5980612,170.916963 31.6866032,170.916963 C30.006837,170.916963 28.6891092,171.260772 27.7333801,171.948399 C26.7776511,172.636026 26.2997938,173.57967 26.2997938,174.779359 L26.2997938,174.867141 C26.2997938,175.949788 26.719729,176.805651 27.5596121,177.434757 C28.3994952,178.063862 29.4710541,178.37841 30.7743209,178.37841 Z M50.9922331,186.366548 L50.9922331,160.997628 C50.9922331,160.236849 51.2456423,159.600438 51.7524683,159.088375 C52.2592943,158.576312 52.8747166,158.320285 53.5987538,158.320285 C54.3517524,158.320285 54.9816553,158.583627 55.4884813,159.11032 C55.9953073,159.637013 56.2487165,160.266109 56.2487165,160.997628 L56.2487165,162.446026 C58.2760205,159.549214 60.8825151,158.10083 64.0682785,158.10083 C66.9354656,158.10083 69.4261161,159.183461 71.5403045,161.348754 C73.654493,163.514048 74.7115714,166.440076 74.7115714,170.126928 L74.7115714,170.214709 C74.7115714,173.8723 73.6617332,176.791013 71.5620255,178.970937 C69.4623178,181.150861 66.9644271,182.240807 64.0682785,182.240807 C60.8825151,182.240807 58.2760205,180.880203 56.2487165,178.158956 L56.2487165,186.366548 C56.2487165,187.098066 55.9953073,187.719847 55.4884813,188.23191 C54.9816553,188.743973 54.3517524,189 53.5987538,189 C52.8747166,189 52.2592943,188.743973 51.7524683,188.23191 C51.2456423,187.719847 50.9922331,187.098066 50.9922331,186.366548 Z M62.8084602,177.632266 C64.6619953,177.632266 66.2186518,176.951964 67.4784764,175.59134 C68.7383011,174.230717 69.3682039,172.438524 69.3682039,170.214709 L69.3682039,170.126928 C69.3682039,167.932373 68.7310608,166.147496 67.4567554,164.772242 C66.1824501,163.396988 64.6330338,162.709371 62.8084602,162.709371 C60.9838866,162.709371 59.4127496,163.404303 58.095002,164.794187 C56.7772544,166.184072 56.1183905,167.961634 56.1183905,170.126928 L56.1183905,170.214709 C56.1183905,172.380003 56.7772544,174.157565 58.095002,175.54745 C59.4127496,176.937334 60.9838866,177.632266 62.8084602,177.632266 Z M86.8927114,168.546856 L98.6654965,168.546856 C98.4917276,166.761952 97.898026,165.298938 96.884374,164.15777 C95.870722,163.016602 94.5240331,162.446026 92.844267,162.446026 C91.2513852,162.446026 89.9191769,163.009287 88.8476019,164.135824 C87.7760269,165.262362 87.1244033,166.732692 86.8927114,168.546856 Z M101.706437,179.212337 C99.4474414,181.260588 96.6961415,182.284698 93.4524551,182.284698 C90.0929228,182.284698 87.2909411,181.165492 85.0464259,178.927046 C82.8019108,176.688601 81.67967,173.799148 81.67967,170.2586 L81.67967,170.170819 C81.67967,166.805835 82.7367484,163.952958 84.8509369,161.6121 C86.9651253,159.271242 89.6440226,158.10083 92.887709,158.10083 C95.2046278,158.10083 97.2174209,158.693351 98.9261486,159.87841 C100.634876,161.06347 101.872961,162.497224 102.640441,164.179715 C103.40792,165.862207 103.791654,167.639769 103.791654,169.512456 C103.791654,170.243974 103.552725,170.851125 103.074861,171.333926 C102.596996,171.816728 102.010535,172.058126 101.315459,172.058126 L86.9361534,172.058126 C87.2257683,173.901551 87.9642751,175.34262 89.151696,176.381376 C90.3391169,177.420132 91.80165,177.939502 93.5393391,177.939502 C95.5376817,177.939502 97.3477474,177.266515 98.9695906,175.920522 C99.3750514,175.598654 99.8239477,175.437722 100.316293,175.437722 C100.895523,175.437722 101.387861,175.642544 101.793321,176.052195 C102.198782,176.461845 102.401509,176.9739 102.401509,177.588375 C102.401509,178.20285 102.169821,178.744165 101.706437,179.212337 Z M119.839133,182.196916 C116.653369,182.196916 113.742784,181.275217 111.107289,179.431791 C110.441174,179.080663 110.108122,178.466197 110.108122,177.588375 C110.108122,177.00316 110.31085,176.49842 110.716311,176.07414 C111.121771,175.649859 111.62859,175.437722 112.236781,175.437722 C112.642242,175.437722 113.018735,175.540133 113.366273,175.744958 C115.567346,177.237255 117.768386,177.983393 119.969459,177.983393 C121.098957,177.983393 121.975029,177.756625 122.597701,177.303084 C123.220373,176.849543 123.531704,176.242392 123.531704,175.481613 L123.531704,175.393832 C123.531704,174.281924 121.996768,173.257814 118.926851,172.321471 C118.695159,172.233689 118.521392,172.175168 118.405547,172.145907 C117.362933,171.8533 116.494102,171.560697 115.799026,171.26809 C115.10395,170.975483 114.365443,170.573154 113.583483,170.061091 C112.801523,169.549029 112.215062,168.897987 111.824082,168.107948 C111.433102,167.317908 111.237615,166.396209 111.237615,165.342823 L111.237615,165.255042 C111.237615,163.119009 112.012323,161.407282 113.561762,160.11981 C115.111202,158.832338 117.058832,158.188612 119.404713,158.188612 C121.866439,158.188612 124.270206,158.817708 126.616087,160.075919 C127.45597,160.51483 127.875905,161.187817 127.875905,162.094899 C127.875905,162.709374 127.665937,163.221429 127.245996,163.631079 C126.826054,164.04073 126.311996,164.245552 125.703804,164.245552 C125.356267,164.245552 125.008734,164.157771 124.661196,163.982206 C122.633892,162.92882 120.838307,162.402135 119.274387,162.402135 C118.289696,162.402135 117.507748,162.614272 116.928518,163.038553 C116.349288,163.462833 116.059678,164.011464 116.059678,164.68446 L116.059678,164.772242 C116.059678,165.50376 116.450652,166.081651 117.232612,166.505931 C118.014572,166.930212 119.201975,167.405691 120.794857,167.932384 C120.997588,167.990906 121.142393,168.034796 121.229277,168.064057 C122.242929,168.385925 123.09728,168.700473 123.792356,169.007711 C124.487432,169.314948 125.218698,169.731907 125.986178,170.2586 C126.753657,170.785293 127.340118,171.42902 127.745579,172.189798 C128.15104,172.950577 128.353767,173.828386 128.353767,174.82325 L128.353767,174.911032 C128.353767,177.25189 127.557338,179.051397 125.964457,180.309609 C124.371575,181.56782 122.329821,182.196916 119.839133,182.196916 Z M143.793058,182.153025 C139.390912,182.153025 137.189872,179.885353 137.189872,175.349941 L137.189872,163.14828 L136.321032,163.14828 C135.683879,163.14828 135.1481,162.928828 134.713678,162.489917 C134.279255,162.051006 134.062047,161.509691 134.062047,160.865955 C134.062047,160.222219 134.279255,159.680904 134.713678,159.241993 C135.1481,158.803082 135.683879,158.58363 136.321032,158.58363 L137.189872,158.58363 L137.189872,154.633452 C137.189872,153.901934 137.450522,153.280153 137.971829,152.76809 C138.493135,152.256027 139.115798,152 139.839835,152 C140.563872,152 141.179294,152.256027 141.68612,152.76809 C142.192946,153.280153 142.446356,153.901934 142.446356,154.633452 L142.446356,158.58363 L146.573347,158.58363 C147.210499,158.58363 147.753519,158.803082 148.202422,159.241993 C148.651325,159.680904 148.875773,160.222219 148.875773,160.865955 C148.875773,161.509691 148.651325,162.051006 148.202422,162.489917 C147.753519,162.928828 147.210499,163.14828 146.573347,163.14828 L142.446356,163.14828 L142.446356,174.516014 C142.446356,176.447222 143.38759,177.412811 145.270086,177.412811 C145.501778,177.412811 145.769668,177.390866 146.073764,177.346975 C146.377859,177.303084 146.544385,177.281139 146.573347,177.281139 C147.181538,177.281139 147.702837,177.493276 148.137259,177.917556 C148.571681,178.341837 148.788889,178.861207 148.788889,179.475682 C148.788889,180.470547 148.325513,181.158163 147.398745,181.538553 C146.240286,181.948203 145.038402,182.153025 143.793058,182.153025 Z M156.756154,179.344009 L156.756154,160.997628 C156.756154,160.236849 157.009563,159.600438 157.516389,159.088375 C158.023215,158.576312 158.638638,158.320285 159.362675,158.320285 C160.115674,158.320285 160.745576,158.583627 161.252402,159.11032 C161.759228,159.637013 162.012638,160.266109 162.012638,160.997628 L162.012638,163.367734 C162.64979,161.875437 163.489661,160.65382 164.532274,159.702847 C165.574888,158.751873 166.660927,158.276394 167.790425,158.276394 C168.601347,158.276394 169.23849,158.517791 169.701874,159.000593 C170.165257,159.483395 170.396946,160.119806 170.396946,160.909846 C170.396946,161.582842 170.201459,162.146103 169.810479,162.599644 C169.419499,163.053185 168.919921,163.338473 168.311729,163.455516 C166.37131,163.806645 164.836374,164.735659 163.706876,166.242586 C162.577378,167.749513 162.012638,169.834309 162.012638,172.497034 L162.012638,179.344009 C162.012638,180.075528 161.751988,180.697309 161.230681,181.209371 C160.709375,181.721434 160.086712,181.977461 159.362675,181.977461 C158.638638,181.977461 158.023215,181.721434 157.516389,181.209371 C157.009563,180.697309 156.756154,180.075528 156.756154,179.344009 Z M181.665804,188.912218 C180.333575,188.912218 179.117211,188.692766 178.016675,188.253855 C176.916138,187.873466 176.365878,187.141959 176.365878,186.059312 C176.365878,185.415576 176.575846,184.888891 176.995787,184.479241 C177.415729,184.069591 177.915307,183.864769 178.494537,183.864769 C178.784152,183.864769 179.102723,183.923289 179.450261,184.040332 C180.174298,184.245157 180.78248,184.347568 181.274826,184.347568 C182.056786,184.347568 182.686689,184.164691 183.164553,183.798932 C183.642418,183.433173 184.098554,182.796762 184.532976,181.88968 L184.706744,181.40688 L176.19211,162.182681 C175.98938,161.714509 175.888016,161.290235 175.888016,160.909846 C175.888016,160.178328 176.134185,159.563862 176.62653,159.066429 C177.118876,158.568997 177.741538,158.320285 178.494537,158.320285 C179.681958,158.320285 180.536309,158.993271 181.057616,160.339265 L187.226381,175.744958 L192.960727,160.339265 C193.482033,158.993271 194.321904,158.320285 195.480363,158.320285 C196.175439,158.320285 196.769141,158.561682 197.261486,159.044484 C197.753831,159.527286 198,160.119807 198,160.822064 C198,161.231714 197.927597,161.655988 197.78279,162.094899 L189.398482,182.41637 C188.413791,184.786489 187.342232,186.46164 186.183773,187.441874 C185.025313,188.422108 183.519339,188.912218 181.665804,188.912218 Z" id="tapestry-copy" fill="#4A4A4A"></path>
                <g id="tapestry-test-3-copy-11" transform="translate(37.000000, 0.000000)">
                    <path d="M115.247059,26.2090199 L124,26.2090199 L124,26.5130537 L115.247059,26.5130537 C115.247059,26.46226 115.24654,26.4115869 115.245507,26.3610396 C115.24654,26.3104906 115.247059,26.2598157 115.247059,26.2090199 Z M0,95.6840907 L8.75294118,95.6840907 L8.75294118,95.3632568 L0,95.3632568 C-4.14622585e-14,95.4167715 0.000261405139,95.4702252 0.000783004858,95.5236168 C0.000261404413,95.5770461 0,95.6305378 0,95.6840907 Z M8.75294118,95.6840907 L0,95.6840907 L0,95.3632568 L8.75294118,95.3632568 C8.75294118,95.4168219 8.75351806,95.4702531 8.75466594,95.5235444 C8.75351806,95.5769205 8.75294118,95.6304379 8.75294118,95.6840907 Z M107.954754,19.2132093 L4.92767513,19.2132093 C2.51061716,19.2132093 0.551204539,17.2507688 0.551204539,14.8299758 C0.551204539,12.4091828 2.51061716,10.4467423 4.92767513,10.4467423 L107.954754,10.4467423 C116.764618,10.4467423 123.917785,17.5592769 123.999296,26.3610405 C123.917777,35.1640574 116.763258,42.2753313 107.95353,42.2753313 L16.5856443,42.2753313 C12.5970747,42.2753313 9.35183603,45.4904016 9.29292994,49.4697941 C9.35180537,53.4527582 12.5937021,56.6640987 16.5808189,56.6640987 L107.910924,56.6640987 C116.698151,56.6640987 123.834399,63.7452629 123.951117,72.5215307 C123.834355,81.296741 116.692787,88.3790725 107.909539,88.3790725 L16.0430302,88.3790725 C12.0701324,88.3790725 8.83985706,91.5621875 8.75466594,95.5235444 C8.83991984,99.4815493 12.0748576,102.668275 16.0433388,102.668275 L119.579146,102.668275 C121.996204,102.668275 123.955617,104.630716 123.955617,107.051509 C123.955617,109.472302 121.996204,111.434742 119.579146,111.434742 L16.0433388,111.434742 C7.24096587,111.434742 0.0867524242,104.323548 0.000783004858,95.5236168 C0.0867193492,86.7208705 7.23548181,79.6126054 16.0430302,79.6126054 L107.909539,79.6126054 C111.858082,79.6126054 115.081034,76.4553695 115.19643,72.5214548 C115.081109,68.5854979 111.862238,65.4305657 107.910924,65.4305657 L16.5808189,65.4305657 C7.75901115,65.4305657 0.598750483,58.2938645 0.539543775,49.4697517 C0.598763502,40.6495428 7.76215897,33.5088642 16.5856443,33.5088642 L107.95353,33.5088642 C111.930103,33.5088642 115.164608,30.3212842 115.245507,26.3610396 C115.164617,22.4013274 111.930749,19.2132093 107.954754,19.2132093 Z" id="loom-copy" fill="#864BFF" fill-rule="nonzero"></path>
                    <g id="weave" transform="translate(11.670588, 0.000000)" fill="#00FFCB">
                        <path d="M8.02352941,33.5591317 L8.02352941,13.1790437 C8.02352941,11.2214161 9.49602083,9.628916 11.3016342,9.628916 L11.9715953,9.628916 C12.7948562,9.628916 13.5476284,9.95813108 14.1236078,10.5016962 C15.1352941,10.5016962 21.8600425,10.4239129 22.9965504,10.4786741 C21.8600425,5.02490085 17.3556034,0.94973627 11.9715953,0.94973627 L11.3016342,0.94973627 C5.06510574,0.94973627 0,6.42765034 0,13.1790437 L0,34.2896707 C0,34.2896707 1.41323529,33.7874251 3.51029412,33.5591317 L8.02352941,33.5591317 Z" id="GUIDE-Copy-8" fill-rule="nonzero"></path>
                        <path d="M38.6588235,33.5591317 L38.6588235,13.1059184 C38.6588235,11.1482909 40.131315,9.55579077 41.9369283,9.55579077 L42.6068894,9.55579077 C43.4301503,9.55579077 44.1829225,9.88500584 44.7589019,10.428571 C45.7705882,10.428571 52.4953366,10.3507877 53.6318445,10.4055489 C52.4953366,4.95177561 47.9908975,0.876611036 42.6068894,0.876611036 L41.9369283,0.876611036 C35.7003999,0.876611036 30.6352941,6.35452511 30.6352941,13.1059184 L30.6352941,33.5134731 L38.6588235,33.5591317 Z" id="GUIDE-Copy-9" fill-rule="nonzero"></path>
                        <path d="M69.2941176,33.6047904 L69.2941176,13.1790437 C69.2941176,11.2214161 70.7666091,9.628916 72.5722225,9.628916 L73.2421836,9.628916 C74.0654444,9.628916 74.8182166,9.95813108 75.394196,10.5016962 C76.4058824,10.5016962 83.1306308,10.4239129 84.2671386,10.4786741 C83.1306308,5.02490085 78.6261916,0.94973627 73.2421836,0.94973627 L72.5722225,0.94973627 C66.335694,0.94973627 61.2705882,6.42765034 61.2705882,13.1790437 L61.2705882,33.5591317 L69.2941176,33.6047904 Z" id="GUIDE-Copy-10" fill-rule="nonzero"></path>
                        <path d="M24.0712173,120.986368 L24.0712173,100.624517 C24.0712173,98.6668894 25.5438242,97.0743893 27.3495792,97.0743893 L28.0195928,97.0743893 C28.8429182,97.0743893 29.5957494,97.4036044 30.171774,97.9471696 C31.1835396,97.9471696 37.9088153,97.8693862 39.0454123,97.9241474 C37.9088153,92.4703742 33.404023,88.3952096 28.0195928,88.3952096 L27.3495792,88.3952096 C21.1125617,88.3952096 16.0470588,93.8731237 16.0470588,100.624517 L16.0470588,120.94071 L24.0712173,120.986368 Z" id="GUIDE-Copy-11" fill-rule="nonzero" transform="translate(27.546236, 104.690789) scale(-1, -1) translate(-27.546236, -104.690789) "></path>
                        <path d="M54.7065114,120.986368 L54.7065114,100.624517 C54.7065114,98.6668894 56.1791183,97.0743893 57.9848733,97.0743893 L58.6548869,97.0743893 C59.4782123,97.0743893 60.2310435,97.4036044 60.8070681,97.9471696 C61.8188337,97.9471696 68.5441094,97.8693862 69.6807064,97.9241474 C68.5441094,92.4703742 64.0393171,88.3952096 58.6548869,88.3952096 L57.9848733,88.3952096 C51.7478558,88.3952096 46.6823529,93.8731237 46.6823529,100.624517 L46.6823529,120.94071 L54.7065114,120.986368 Z" id="GUIDE-Copy-12" fill-rule="nonzero" transform="translate(58.181530, 104.690789) scale(-1, -1) translate(-58.181530, -104.690789) "></path>
                        <path d="M85.3418056,120.392805 L85.3418056,100.030954 C85.3418056,98.0733266 86.8144124,96.4808264 88.6201674,96.4808264 L89.290181,96.4808264 C90.1135064,96.4808264 90.8663377,96.8100415 91.4423622,97.3536067 C92.4541279,97.3536067 99.1794035,97.2758234 100.316001,97.3305845 C99.1794035,91.8768113 94.6746112,87.8016467 89.290181,87.8016467 L88.6201674,87.8016467 C82.3831499,87.8016467 77.3176471,93.2795608 77.3176471,100.030954 L77.3176471,120.940692 C77.3176471,120.940692 79.0718829,120.392805 80.3027652,120.392805 C83.1367135,120.270257 85.3418056,120.392805 85.3418056,120.392805 Z" id="GUIDE-Copy-13" fill-rule="nonzero" transform="translate(88.816824, 104.371169) scale(-1, -1) translate(-88.816824, -104.371169) "></path>
                        <path d="M4.01176471,42.2571108 L8.02352941,42.2571108 L8.02352941,79.6287425 C8.02352941,79.6287425 4.0572639,79.6287425 3.60138155,79.6287425 C1.77785214,79.7428 0,80.2451347 0,80.2451347 L0,44.1976048 C0,44.1976048 1.77794118,42.2571108 4.01176471,42.2571108 Z" id="Rectangle-6-Copy-17"></path>
                        <polygon id="Rectangle-6-Copy-18" points="15.3176471 19.1766467 23.3411765 19.1766467 23.3411765 56.6167665 15.3176471 56.6167665"></polygon>
                        <polygon id="Rectangle-6-Copy-19" points="45.9529412 19.2223054 53.9764706 19.2223054 53.9764706 56.6167665 45.9529412 56.6167665"></polygon>
                        <polygon id="Rectangle-6-Copy-20" points="76.5882353 19.2223054 84.6117647 19.2223054 84.6117647 56.6167665 76.5882353 56.6167665"></polygon>
                        <path d="M91.9058824,42.29364 C91.9058824,42.29364 94.0712345,42.29364 96.8066176,42.29364 C98.4932933,42.29364 99.9294118,41.8598825 99.9294118,41.8598825 L99.9294118,78.6606915 C99.9294118,78.6606915 99.0632353,79.551125 96.3052361,79.6652717 C94.0029412,79.6652717 91.9058824,79.6652717 91.9058824,79.6652717 L91.9058824,42.29364 Z" id="Rectangle-6-Copy-26"></path>
                        <rect id="Rectangle-6-Copy-23" x="15.3176471" y="65.3101975" width="8.02352941" height="37.4035934"></rect>
                        <rect id="Rectangle-6-Copy-24" x="45.9529412" y="65.4562863" width="8.02352941" height="37.1844323"></rect>
                        <rect id="Rectangle-6-Copy-27" x="76.5882353" y="65.3101975" width="8.02352941" height="37.4035934"></rect>
                        <polygon id="Rectangle-6-Copy-28" points="30.6352941 42.1886228 38.6588235 42.1886228 38.6588235 79.5922161 30.6352941 79.5922161"></polygon>
                        <polygon id="Rectangle-6-Copy-29" points="61.2705882 42.1886228 69.2941176 42.1886228 69.2941176 79.5922161 61.2705882 79.5922161"></polygon>
                        <path d="M3.73841337,88.3952096 L8.02352941,88.3952096 L8.02352941,117.70557 C8.02352941,119.926019 6.2228928,121.726048 4.01176471,121.726048 L4.01176471,121.726048 C1.79612824,121.726048 0,119.923864 0,117.711628 L0,89.9019461 C0,89.9019461 0.957352941,88.623503 3.73841337,88.3952096 Z" id="Rectangle-6-Copy-30"></path>
                        <path d="M95.6442957,0.365269461 L99.9294118,0.365269461 L99.9294118,29.4583938 C99.9294118,31.6727356 98.1287752,33.4678144 95.9176471,33.4678144 L95.9176471,33.4678144 C93.7020106,33.4678144 91.9058824,31.6727939 91.9058824,29.4501431 L91.9058824,1.36061982 C91.9058824,1.36061982 93.3875,0.365269461 95.6442957,0.365269461 Z" id="Rectangle-6-Copy-31" transform="translate(95.917647, 16.916542) scale(-1, -1) translate(-95.917647, -16.916542) "></path>
                    </g>
                </g>
            </g>
        </g>
    </g>
</svg>