<svg width="383" height="122" viewBox="0 0 383 122" xmlns="http://www.w3.org/2000/svg"><title>Group</title><g fill="none" fill-rule="evenodd"><path d="M165.65 78.45c-5.067 0-7.6-2.583-7.6-7.75V56.8h-1c-.733 0-1.35-.25-1.85-.75s-.75-1.117-.75-1.85c0-.733.25-1.35.75-1.85s1.117-.75 1.85-.75h1v-4.5c0-.833.3-1.542.9-2.125.6-.583 1.317-.875 2.15-.875s1.542.292 2.125.875.875 1.292.875 2.125v4.5h4.75c.733 0 1.358.25 1.875.75.517.5.775 1.117.775 1.85 0 .733-.258 1.35-.775 1.85s-1.142.75-1.875.75h-4.75v12.95c0 2.2 1.083 3.3 3.25 3.3.267 0 .575-.025.925-.075.35-.05.542-.075.575-.075.7 0 1.3.242 1.8.725s.75 1.075.75 1.775c0 1.133-.533 1.917-1.6 2.35-1.333.467-2.717.7-4.15.7zm22.52.1c-2.6 0-4.808-.725-6.625-2.175-1.817-1.45-2.725-3.442-2.725-5.975v-.1c0-2.767.983-4.875 2.95-6.325 1.967-1.45 4.617-2.175 7.95-2.175 2.433 0 4.8.367 7.1 1.1v-.65c0-1.867-.558-3.292-1.675-4.275-1.117-.983-2.742-1.475-4.875-1.475s-4.083.35-5.85 1.05c-.333.1-.65.15-.95.15-.7 0-1.3-.242-1.8-.725s-.75-1.075-.75-1.775c0-1.167.55-1.967 1.65-2.4 2.733-1.033 5.567-1.55 8.5-1.55 3.933 0 6.85.983 8.75 2.95 1.9 1.867 2.85 4.583 2.85 8.15v13c0 .833-.283 1.525-.85 2.075-.567.55-1.267.825-2.1.825-.867 0-1.575-.25-2.125-.75s-.825-1.1-.825-1.8v-1c-2.133 2.567-5 3.85-8.6 3.85zm1.7-4.4c2.033 0 3.717-.525 5.05-1.575 1.333-1.05 2-2.408 2-4.075v-1.8c-1.8-.7-3.8-1.05-6-1.05-1.933 0-3.45.392-4.55 1.175-1.1.783-1.65 1.858-1.65 3.225v.1c0 1.233.483 2.208 1.45 2.925.967.717 2.2 1.075 3.7 1.075zm23.27 9.1v-28.9c0-.867.292-1.592.875-2.175.583-.583 1.292-.875 2.125-.875.867 0 1.592.3 2.175.9.583.6.875 1.317.875 2.15V56c2.333-3.3 5.333-4.95 9-4.95 3.3 0 6.167 1.233 8.6 3.7s3.65 5.8 3.65 10v.1c0 4.167-1.208 7.492-3.625 9.975-2.417 2.483-5.292 3.725-8.625 3.725-3.667 0-6.667-1.55-9-4.65v9.35c0 .833-.292 1.542-.875 2.125s-1.308.875-2.175.875c-.833 0-1.542-.292-2.125-.875s-.875-1.292-.875-2.125zm13.6-9.95c2.133 0 3.925-.775 5.375-2.325 1.45-1.55 2.175-3.592 2.175-6.125v-.1c0-2.5-.733-4.533-2.2-6.1-1.467-1.567-3.25-2.35-5.35-2.35-2.1 0-3.908.792-5.425 2.375s-2.275 3.608-2.275 6.075v.1c0 2.467.758 4.492 2.275 6.075 1.517 1.583 3.325 2.375 5.425 2.375zm27.72-10.35h13.55c-.2-2.033-.883-3.7-2.05-5-1.167-1.3-2.717-1.95-4.65-1.95-1.833 0-3.367.642-4.6 1.925-1.233 1.283-1.983 2.958-2.25 5.025zm17.05 12.15c-2.6 2.333-5.767 3.5-9.5 3.5-3.867 0-7.092-1.275-9.675-3.825-2.583-2.55-3.875-5.842-3.875-9.875v-.1c0-3.833 1.217-7.083 3.65-9.75s5.517-4 9.25-4c2.667 0 4.983.675 6.95 2.025 1.967 1.35 3.392 2.983 4.275 4.9.883 1.917 1.325 3.942 1.325 6.075 0 .833-.275 1.525-.825 2.075-.55.55-1.225.825-2.025.825h-16.55c.333 2.1 1.183 3.742 2.55 4.925 1.367 1.183 3.05 1.775 5.05 1.775 2.3 0 4.383-.767 6.25-2.3.467-.367.983-.55 1.55-.55.667 0 1.233.233 1.7.7.467.467.7 1.05.7 1.75s-.267 1.317-.8 1.85zm20.87 3.4c-3.667 0-7.017-1.05-10.05-3.15-.767-.4-1.15-1.1-1.15-2.1 0-.667.233-1.242.7-1.725.467-.483 1.05-.725 1.75-.725.467 0 .9.117 1.3.35 2.533 1.7 5.067 2.55 7.6 2.55 1.3 0 2.308-.258 3.025-.775.717-.517 1.075-1.208 1.075-2.075v-.1c0-1.267-1.767-2.433-5.3-3.5-.267-.1-.467-.167-.6-.2-1.2-.333-2.2-.667-3-1-.8-.333-1.65-.792-2.55-1.375-.9-.583-1.575-1.325-2.025-2.225-.45-.9-.675-1.95-.675-3.15v-.1c0-2.433.892-4.383 2.675-5.85 1.783-1.467 4.025-2.2 6.725-2.2 2.833 0 5.6.717 8.3 2.15.967.5 1.45 1.267 1.45 2.3 0 .7-.242 1.283-.725 1.75-.483.467-1.075.7-1.775.7-.4 0-.8-.1-1.2-.3-2.333-1.2-4.4-1.8-6.2-1.8-1.133 0-2.033.242-2.7.725-.667.483-1 1.108-1 1.875v.1c0 .833.45 1.492 1.35 1.975.9.483 2.267 1.025 4.1 1.625.233.067.4.117.5.15 1.167.367 2.15.725 2.95 1.075.8.35 1.642.825 2.525 1.425.883.6 1.558 1.333 2.025 2.2.467.867.7 1.867.7 3v.1c0 2.667-.917 4.717-2.75 6.15-1.833 1.433-4.183 2.15-7.05 2.15zm27.57-.05c-5.067 0-7.6-2.583-7.6-7.75V56.8h-1c-.733 0-1.35-.25-1.85-.75s-.75-1.117-.75-1.85c0-.733.25-1.35.75-1.85s1.117-.75 1.85-.75h1v-4.5c0-.833.3-1.542.9-2.125.6-.583 1.317-.875 2.15-.875s1.542.292 2.125.875.875 1.292.875 2.125v4.5h4.75c.733 0 1.358.25 1.875.75.517.5.775 1.117.775 1.85 0 .733-.258 1.35-.775 1.85s-1.142.75-1.875.75h-4.75v12.95c0 2.2 1.083 3.3 3.25 3.3.267 0 .575-.025.925-.075.35-.05.542-.075.575-.075.7 0 1.3.242 1.8.725s.75 1.075.75 1.775c0 1.133-.533 1.917-1.6 2.35-1.333.467-2.717.7-4.15.7zm14.92-3.2v-20.9c0-.867.292-1.592.875-2.175.583-.583 1.292-.875 2.125-.875.867 0 1.592.3 2.175.9.583.6.875 1.317.875 2.15v2.7c.733-1.7 1.7-3.092 2.9-4.175 1.2-1.083 2.45-1.625 3.75-1.625.933 0 1.667.275 2.2.825.533.55.8 1.275.8 2.175 0 .767-.225 1.408-.675 1.925-.45.517-1.025.842-1.725.975-2.233.4-4 1.458-5.3 3.175-1.3 1.717-1.95 4.092-1.95 7.125v7.8c0 .833-.3 1.542-.9 2.125-.6.583-1.317.875-2.15.875s-1.542-.292-2.125-.875-.875-1.292-.875-2.125zm28.67 10.9c-1.533 0-2.933-.25-4.2-.75-1.267-.433-1.9-1.267-1.9-2.5 0-.733.242-1.333.725-1.8.483-.467 1.058-.7 1.725-.7.333 0 .7.067 1.1.2.833.233 1.533.35 2.1.35.9 0 1.625-.208 2.175-.625.55-.417 1.075-1.142 1.575-2.175l.2-.55-9.8-21.9c-.233-.533-.35-1.017-.35-1.45 0-.833.283-1.533.85-2.1.567-.567 1.283-.85 2.15-.85 1.367 0 2.35.767 2.95 2.3l7.1 17.55 6.6-17.55c.6-1.533 1.567-2.3 2.9-2.3.8 0 1.483.275 2.05.825.567.55.85 1.225.85 2.025 0 .467-.083.95-.25 1.45l-9.65 23.15c-1.133 2.7-2.367 4.608-3.7 5.725-1.333 1.117-3.067 1.675-5.2 1.675z" fill="#4A4A4A"/><path d="M115.247 26.21H124v.303h-8.753v-.302zM0 95.683h8.753v-.32H0v.32zm8.753 0H0v-.32h8.753c0 .053 0 .106.002.16l-.002.16zm99.202-76.47H4.928C2.51 19.213.55 17.25.55 14.83s1.96-4.383 4.378-4.383h103.027c8.81 0 15.963 7.112 16.044 15.914-.09 8.81-7.24 15.92-16.05 15.92H16.582c-3.99 0-7.234 3.218-7.293 7.198.06 3.984 3.3 7.195 7.29 7.195h91.33c8.79 0 15.927 7.08 16.04 15.858-.113 8.776-7.254 15.858-16.04 15.858H16.046c-3.973 0-7.203 3.182-7.288 7.144.083 3.958 3.32 7.144 7.286 7.144H119.58c2.416 0 4.376 1.964 4.376 4.385 0 2.42-1.96 4.383-4.377 4.383H16.04c-8.802 0-15.956-7.11-16.042-15.91.087-8.803 7.235-15.91 16.043-15.91h91.87c3.95 0 7.17-3.16 7.29-7.093-.115-3.935-3.334-7.09-7.285-7.09H16.58C7.76 65.43.6 58.296.54 49.47c.06-8.82 7.222-15.96 16.046-15.96h91.368c3.976 0 7.21-3.19 7.292-7.15-.08-3.96-3.315-7.147-7.29-7.147z" fill="#864BFF" fill-rule="nonzero"/><g fill="#00FFCB"><path d="M19.694 33.56V13.18c0-1.96 1.473-3.55 3.278-3.55h.67c.823 0 1.576.328 2.152.872 1.012 0 7.737-.078 8.873-.023C33.53 5.02 29.027.95 23.642.95h-.67c-6.236 0-11.3 5.478-11.3 12.23v21.11s1.412-.503 3.51-.73h4.512zm30.636 0V13.105c0-1.958 1.472-3.55 3.278-3.55h.67c.823 0 1.576.33 2.15.873 1.013 0 7.738-.08 8.874-.024-1.136-5.454-5.64-9.53-11.025-9.53h-.67c-6.236 0-11.3 5.48-11.3 12.23V33.51l8.022.047zm30.635.045V13.18c0-1.96 1.472-3.55 3.278-3.55h.67c.823 0 1.576.328 2.152.872 1.01 0 7.736-.078 8.873-.023C94.8 5.02 90.298.95 84.913.95h-.67C78.006.95 72.94 6.428 72.94 13.18v20.38l8.025.045zm-38.273 54.79v20.362c0 1.958-1.473 3.55-3.28 3.55h-.67c-.822 0-1.575-.33-2.15-.873-1.012 0-7.738.078-8.874.023 1.136 5.454 5.64 9.53 11.025 9.53h.67c6.237 0 11.303-5.48 11.303-12.23V88.44l-8.024-.045zm30.635 0v20.362c0 1.958-1.472 3.55-3.278 3.55h-.67c-.83 0-1.58-.33-2.16-.873-1.01 0-7.738.078-8.875.023 1.137 5.454 5.64 9.53 11.026 9.53h.67c6.237 0 11.3-5.48 11.3-12.23V88.44l-8.022-.045zm30.635-.045v20.36c0 1.96-1.472 3.552-3.278 3.552h-.67c-.823 0-1.576-.33-2.152-.873-1.012 0-7.737.07-8.874.02 1.137 5.45 5.642 9.53 11.026 9.53h.67c6.237 0 11.303-5.48 11.303-12.23V87.8s-1.755.548-2.986.548c-2.83.122-5.03 0-5.03 0z" fill-rule="nonzero"/><path d="M15.682 42.257h4.012V79.63h-4.422c-1.824.113-3.6.615-3.6.615V44.198s1.777-1.94 4.01-1.94zm11.308-23.08h8.022v37.44H26.99m30.634-37.395h8.023v37.395h-8.023M88.26 19.222h8.023v37.395H88.26m15.316-14.323h4.9c1.688 0 3.124-.434 3.124-.434v36.8s-.866.89-3.624 1.005h-4.4v-37.37zM26.99 65.31h8.023v37.404H26.99zm30.634.146h8.024v37.184h-8.024zm30.636-.146h8.023v37.404H88.26zM42.306 42.19h8.024v37.4h-8.024m30.636-37.4h8.023v37.4h-8.023M15.41 88.395h4.284v29.31c0 2.22-1.8 4.02-4.012 4.02-2.215 0-4.01-1.8-4.01-4.013v-27.81s.956-1.278 3.737-1.507zm92.452-54.927h-4.286V4.375c0-2.215 1.8-4.01 4.012-4.01 2.216 0 4.012 1.795 4.012 4.018v28.09s-1.482.995-3.738.995z"/></g></g></svg>
