<svg width="198" height="189" viewBox="0 0 198 189" xmlns="http://www.w3.org/2000/svg"><g fill="none" fill-rule="evenodd"><path d="M9.73 182.153c-4.4 0-6.602-2.268-6.602-6.803v-12.202h-.87c-.636 0-1.172-.22-1.606-.658-.435-.44-.652-.98-.652-1.624 0-.644.217-1.185.652-1.624.434-.44.97-.658 1.607-.658h.86v-3.95c0-.732.26-1.354.78-1.866S5.04 152 5.77 152s1.34.256 1.846.768c.507.512.76 1.134.76 1.865v3.95H12.5c.64 0 1.18.22 1.63.66.45.438.675.98.675 1.623 0 .644-.225 1.185-.674 1.624-.45.44-.99.658-1.63.658H8.38v11.368c0 1.93.94 2.897 2.824 2.897.23 0 .5-.022.8-.066.303-.044.47-.066.5-.066.606 0 1.13.22 1.562.64.433.43.65.95.65 1.56 0 1-.464 1.68-1.39 2.07-1.16.41-2.36.62-3.606.62zm19.567.088c-2.26 0-4.177-.63-5.756-1.9-1.57-1.27-2.36-3.02-2.36-5.24v-.1c0-2.43.86-4.28 2.57-5.55 1.71-1.27 4.01-1.91 6.91-1.91 2.12 0 4.17.32 6.17.97v-.57c0-1.64-.48-2.89-1.45-3.75-.97-.86-2.38-1.29-4.23-1.29s-3.55.31-5.08.92c-.29.09-.56.13-.82.13-.61 0-1.13-.21-1.56-.63-.43-.42-.65-.94-.65-1.56 0-1.02.48-1.72 1.44-2.1 2.38-.9 4.84-1.36 7.39-1.36 3.42 0 5.95.87 7.6 2.59 1.65 1.64 2.48 4.03 2.48 7.16v11.42c0 .73-.24 1.34-.74 1.82-.49.49-1.1.73-1.82.73-.75 0-1.36-.22-1.84-.65-.48-.44-.71-.97-.71-1.58v-.88c-1.852 2.25-4.343 3.38-7.47 3.38zm1.477-3.86c1.767 0 3.23-.46 4.388-1.38 1.158-.92 1.738-2.11 1.738-3.57v-1.58c-1.564-.61-3.302-.92-5.213-.92-1.68 0-2.998.35-3.954 1.03-.955.69-1.433 1.64-1.433 2.84v.09c0 1.09.42 1.94 1.26 2.57.84.63 1.91.95 3.214.95zm20.218 7.99V161c0-.76.254-1.4.76-1.91.507-.513 1.123-.77 1.847-.77.75 0 1.38.265 1.88.79.5.528.76 1.157.76 1.89v1.447c2.03-2.897 4.63-4.345 7.82-4.345 2.86 0 5.36 1.083 7.47 3.25 2.11 2.164 3.17 5.09 3.17 8.777v.08c0 3.65-1.05 6.57-3.15 8.75-2.1 2.18-4.6 3.27-7.5 3.27-3.19 0-5.79-1.36-7.82-4.08v8.2c0 .73-.26 1.35-.76 1.86-.51.51-1.14.77-1.89.77-.73 0-1.34-.26-1.85-.77s-.76-1.14-.76-1.87zm11.816-8.73c1.854 0 3.41-.68 4.67-2.04 1.26-1.36 1.89-3.15 1.89-5.37v-.09c0-2.19-.637-3.98-1.91-5.35-1.276-1.37-2.825-2.06-4.65-2.06-1.824 0-3.395.7-4.713 2.09s-1.977 3.17-1.977 5.34v.09c0 2.17.66 3.94 1.977 5.33 1.318 1.39 2.89 2.09 4.713 2.09zm24.085-9.08h11.772c-.173-1.78-.767-3.25-1.78-4.39-1.014-1.14-2.36-1.71-4.04-1.71-1.594 0-2.926.56-3.997 1.69-1.072 1.13-1.724 2.6-1.955 4.41zm14.813 10.67c-2.26 2.05-5.01 3.08-8.254 3.08-3.36 0-6.16-1.12-8.406-3.35-2.244-2.24-3.366-5.13-3.366-8.67v-.09c0-3.36 1.057-6.21 3.17-8.56 2.115-2.34 4.794-3.51 8.038-3.51 2.317 0 4.33.59 6.038 1.78 1.71 1.19 2.947 2.62 3.714 4.3.768 1.69 1.152 3.46 1.152 5.34 0 .74-.24 1.34-.717 1.83-.478.49-1.064.73-1.76.73h-14.38c.29 1.85 1.03 3.29 2.217 4.33s2.65 1.56 4.387 1.56c1.99 0 3.8-.67 5.43-2.02.4-.32.85-.48 1.34-.48.58 0 1.07.21 1.47.61.4.41.61.93.61 1.54s-.24 1.16-.7 1.63zm18.133 2.99c-3.19 0-6.1-.92-8.74-2.76-.67-.35-1-.96-1-1.84 0-.59.2-1.09.61-1.52.4-.42.91-.63 1.52-.63.4 0 .78.1 1.13.31 2.2 1.49 4.4 2.24 6.6 2.24 1.13 0 2-.22 2.63-.68.62-.45.93-1.06.93-1.82v-.09c0-1.11-1.54-2.13-4.61-3.07-.23-.08-.41-.14-.52-.17-1.05-.29-1.92-.58-2.61-.88-.7-.29-1.44-.69-2.22-1.21-.78-.51-1.37-1.16-1.76-1.95-.39-.79-.59-1.71-.59-2.76v-.09c0-2.14.77-3.85 2.32-5.14 1.55-1.28 3.49-1.93 5.84-1.93 2.46 0 4.86.63 7.21 1.89.84.44 1.26 1.11 1.26 2.02 0 .61-.21 1.12-.63 1.53-.42.41-.94.62-1.54.62-.35 0-.7-.09-1.05-.26-2.03-1.05-3.82-1.58-5.39-1.58-.99 0-1.77.22-2.35.64-.58.43-.87.97-.87 1.65v.09c0 .73.39 1.31 1.17 1.74.78.42 1.97.9 3.56 1.42l.43.13c1.01.32 1.87.64 2.56.95.69.31 1.43.728 2.19 1.25.77.53 1.35 1.17 1.76 1.93.4.76.61 1.64.61 2.63v.09c0 2.34-.8 4.14-2.39 5.4-1.59 1.26-3.64 1.89-6.13 1.89zm23.95-.04c-4.4 0-6.61-2.27-6.61-6.8v-12.2h-.87c-.64 0-1.18-.22-1.61-.66-.44-.44-.65-.98-.65-1.62 0-.64.21-1.18.65-1.62.43-.44.97-.66 1.61-.66h.87v-3.95c0-.73.26-1.35.78-1.86s1.14-.77 1.87-.77c.72 0 1.34.26 1.84.77s.76 1.14.76 1.87v3.95h4.12c.64 0 1.18.22 1.63.66.45.44.67.98.67 1.63 0 .65-.23 1.19-.68 1.63-.45.44-.99.66-1.63.66h-4.13v11.37c0 1.93.94 2.9 2.82 2.9.23 0 .5-.02.8-.06.3-.04.47-.07.5-.07.61 0 1.13.21 1.56.64.43.42.65.94.65 1.56 0 .99-.46 1.68-1.39 2.06-1.16.41-2.36.62-3.61.62zm12.96-2.81V161c0-.76.25-1.398.76-1.91.5-.512 1.12-.768 1.84-.768.75 0 1.38.264 1.89.79.5.527.76 1.156.76 1.888v2.37c.63-1.493 1.47-2.714 2.52-3.665 1.04-.95 2.13-1.427 3.25-1.427.81 0 1.44.242 1.91.725.46.483.69 1.12.69 1.91 0 .673-.2 1.236-.59 1.69-.39.453-.89.738-1.5.856-1.94.35-3.48 1.28-4.61 2.78-1.13 1.5-1.7 3.59-1.7 6.25v6.84c0 .73-.26 1.35-.79 1.86-.52.51-1.15.76-1.87.76s-1.34-.26-1.85-.77c-.51-.52-.76-1.14-.76-1.87zm24.91 9.57c-1.33 0-2.55-.22-3.65-.66-1.1-.38-1.65-1.11-1.65-2.19 0-.64.21-1.17.63-1.58.42-.41.92-.61 1.5-.61.29 0 .6.06.95.18.72.21 1.33.31 1.82.31.78 0 1.41-.18 1.89-.55.47-.36.93-1 1.37-1.91l.17-.48-8.52-19.22c-.21-.47-.31-.89-.31-1.27 0-.73.24-1.34.74-1.84.49-.5 1.11-.75 1.87-.75 1.19 0 2.04.68 2.56 2.02l6.17 15.41 5.73-15.41c.52-1.35 1.36-2.02 2.52-2.02.69 0 1.29.24 1.78.73s.74 1.08.74 1.78c0 .41-.07.838-.22 1.277l-8.39 20.32c-.98 2.37-2.05 4.05-3.21 5.03-1.16.98-2.67 1.47-4.52 1.47z" fill="#4A4A4A"/><path d="M152.247 26.21H161v.303h-8.753v-.302zM37 95.683h8.753v-.32H37v.32zm8.753 0H37v-.32h8.753c0 .053 0 .106.002.16l-.002.16zm99.202-76.47H41.928c-2.417 0-4.377-1.963-4.377-4.384 0-2.42 1.96-4.39 4.38-4.39h103.03c8.81 0 15.97 7.11 16.05 15.91-.08 8.8-7.23 15.91-16.04 15.91H53.59c-3.99 0-7.234 3.21-7.293 7.19.06 3.98 3.3 7.19 7.288 7.19h91.33c8.79 0 15.926 7.08 16.04 15.85-.114 8.77-7.255 15.86-16.04 15.86h-91.87c-3.973 0-7.203 3.18-7.288 7.14.085 3.96 3.32 7.14 7.288 7.14H156.58c2.416 0 4.376 1.96 4.376 4.38s-1.96 4.38-4.377 4.38H53.04c-8.802 0-15.956-7.11-16.042-15.91.087-8.81 7.235-15.91 16.043-15.91h91.87c3.95 0 7.17-3.16 7.29-7.09-.11-3.94-3.33-7.09-7.28-7.09H53.58c-8.82 0-15.98-7.14-16.04-15.96.06-8.82 7.222-15.96 16.046-15.96h91.368c3.976 0 7.21-3.19 7.292-7.15-.08-3.96-3.315-7.15-7.29-7.15z" fill="#864BFF" fill-rule="nonzero"/><g fill="#00FFCB"><path d="M56.694 33.56V13.18c0-1.96 1.473-3.55 3.278-3.55h.67c.823 0 1.576.328 2.152.872 1.012 0 7.737-.078 8.873-.023C70.53 5.02 66.027.95 60.642.95h-.67c-6.236 0-11.3 5.478-11.3 12.23v21.11s1.412-.503 3.51-.73h4.512zm30.636 0V13.105c0-1.958 1.472-3.55 3.278-3.55h.67c.823 0 1.576.33 2.15.873 1.013 0 7.738-.08 8.874-.024-1.136-5.454-5.64-9.53-11.025-9.53h-.67c-6.236 0-11.3 5.48-11.3 12.23V33.51l8.022.047zm30.635.045V13.18c0-1.96 1.472-3.55 3.278-3.55h.67c.823 0 1.576.328 2.152.872 1.01 0 7.736-.078 8.873-.023-1.138-5.46-5.64-9.53-11.025-9.53h-.67c-6.237 0-11.302 5.47-11.302 12.23v20.38l8.03.04zm-38.273 54.79v20.362c0 1.958-1.473 3.55-3.28 3.55h-.67c-.822 0-1.575-.33-2.15-.873-1.012 0-7.738.078-8.874.023 1.136 5.454 5.64 9.53 11.025 9.53h.67c6.237 0 11.303-5.48 11.303-12.23V88.44l-8.024-.045zm30.635 0v20.362c0 1.958-1.472 3.55-3.278 3.55h-.67c-.83 0-1.58-.33-2.16-.873-1.01 0-7.74.078-8.88.023 1.13 5.454 5.64 9.53 11.02 9.53h.67c6.23 0 11.3-5.48 11.3-12.23V88.44l-8.03-.045zm30.635-.045v20.36c0 1.96-1.472 3.552-3.278 3.552h-.67c-.823 0-1.576-.33-2.152-.873-1.012 0-7.737.07-8.874.02 1.137 5.45 5.642 9.53 11.026 9.53h.67c6.237 0 11.303-5.48 11.303-12.23V87.8s-1.755.548-2.986.548c-2.83.122-5.03 0-5.03 0z" fill-rule="nonzero"/><path d="M52.682 42.257h4.012V79.63h-4.422c-1.824.113-3.6.615-3.6.615V44.198s1.777-1.94 4.01-1.94zm11.308-23.08h8.022v37.44H63.99m30.634-37.395h8.023v37.395h-8.023m30.636-37.395h8.023v37.395h-8.024m15.31-14.323h4.9c1.69 0 3.12-.434 3.12-.434v36.8s-.87.89-3.63 1.005h-4.4v-37.37zM63.99 65.31h8.023v37.404H63.99zm30.634.146h8.024v37.184h-8.024zm30.636-.146h8.023v37.404h-8.024zM79.306 42.19h8.024v37.4h-8.024m30.636-37.4h8.023v37.4h-8.023M52.41 88.395h4.284v29.31c0 2.22-1.8 4.02-4.012 4.02-2.215 0-4.01-1.8-4.01-4.013v-27.81s.956-1.278 3.737-1.507zm92.452-54.927h-4.286V4.375c0-2.215 1.8-4.01 4.012-4.01 2.216 0 4.012 1.795 4.012 4.018v28.09s-1.482.995-3.738.995z"/></g></g></svg>
