<svg width="170" height="167" viewBox="0 0 170 167" xmlns="http://www.w3.org/2000/svg"><title>tapestry test 3 copy 9</title><g fill="none" fill-rule="evenodd"><path d="M158 35.876h12v.416h-12c0-.07 0-.138-.002-.208l.002-.208zm-158 95.1h12v-.438H0v.44zm12 0H0v-.438h12c0 .074 0 .147.002.22l-.002.22zM148.002 26.3H6.756c-3.314 0-6-2.686-6-6s2.686-6 6-6h141.246c12.08 0 21.885 9.736 21.997 21.784-.118 12.05-9.92 21.785-22 21.785H22.74c-5.468 0-9.917 4.4-9.998 9.842.08 5.452 4.526 9.848 9.992 9.848h125.21c12.047 0 21.83 9.694 21.99 21.707-.16 12.012-9.95 21.707-21.992 21.707H21.994c-5.446 0-9.875 4.357-9.992 9.78.117 5.418 4.552 9.78 9.993 9.78H163.94c3.313 0 6 2.686 6 6 0 3.313-2.687 6-6 6H21.994C9.927 152.537.12 142.804 0 130.757c.12-12.05 9.92-21.78 21.994-21.78H147.94c5.414 0 9.832-4.32 9.99-9.706-.158-5.382-4.57-9.7-9.988-9.7H22.732C10.637 89.568.822 79.798.74 67.72c.08-12.075 9.902-21.85 21.998-21.85H148c5.453 0 9.887-4.364 9.998-9.785-.11-5.42-4.545-9.784-9.996-9.784z" fill="#864BFF" fill-rule="nonzero"/><g fill="#00FFCB"><path d="M27 45.938V18.04c0-2.68 2.02-4.86 4.494-4.86h.92c1.127 0 2.16.45 2.95 1.195 1.386 0 10.605-.106 12.164-.03C45.968 6.877 39.794 1.3 32.413 1.3h-.92C22.943 1.3 16 8.8 16 18.04v28.898s1.938-.688 4.813-1H27zm42 0V17.94c0-2.68 2.02-4.86 4.494-4.86h.92c1.127 0 2.16.45 2.95 1.195 1.386 0 10.605-.106 12.164-.03C87.968 6.777 81.794 1.2 74.413 1.2h-.92C64.943 1.2 58 8.698 58 17.94v27.935l11 .063zM111 46V18.04c0-2.68 2.02-4.86 4.494-4.86h.92c1.127 0 2.16.45 2.95 1.195 1.386 0 10.605-.106 12.164-.03-1.56-7.467-7.734-13.045-15.115-13.045h-.92C106.943 1.3 100 8.8 100 18.04v27.898L111 46zm-52.47 75v27.872c0 2.68-2.02 4.86-4.495 4.86h-.92c-1.128 0-2.16-.45-2.95-1.195-1.387 0-10.607.107-12.165.032 1.558 7.46 7.734 13.04 15.116 13.04h.92c8.55 0 15.494-7.5 15.494-16.74v-27.81l-11-.06zm42 0v27.872c0 2.68-2.02 4.86-4.495 4.86h-.92c-1.128 0-2.16-.45-2.95-1.195-1.387 0-10.607.107-12.165.032 1.558 7.46 7.734 13.04 15.116 13.04h.92c8.55 0 15.494-7.5 15.494-16.74v-27.81l-11-.06zm42-.063v27.873c0 2.68-2.02 4.86-4.495 4.86h-.92c-1.128 0-2.16-.45-2.95-1.195-1.387 0-10.607.106-12.165.03 1.558 7.467 7.734 13.045 15.116 13.045h.92c8.55 0 15.494-7.498 15.494-16.74v-28.622s-2.405.75-4.093.75c-3.885.167-6.908 0-6.908 0z" fill-rule="nonzero"/><path d="M21.5 57.844H27V109h-6.063c-2.5.156-4.937.844-4.937.844V60.5s2.438-2.656 5.5-2.656zM37 26.25h11V77.5H37m42-51.187h11V77.5H79m42-51.187h11V77.5h-11m21-19.606h6.72c2.31 0 4.28-.594 4.28-.594v50.375s-1.188 1.22-4.97 1.375H142V57.894zM37 89.4h11v51.2H37zm42 .2h11v50.9H79zm42-.2h11v51.2h-11zM58 57.75h11v51.2H58m42-51.2h11v51.2h-11M21.125 121H27v40.122c0 3.04-2.47 5.503-5.5 5.503-3.038 0-5.5-2.467-5.5-5.495v-38.067s1.313-1.75 5.125-2.063zm126.75-75.187H142V6c0-3.038 2.47-5.5 5.5-5.5 3.038 0 5.5 2.457 5.5 5.5v38.45s-2.03 1.362-5.125 1.362z"/></g></g></svg>
